<svg width="138" height="60" viewBox="0 0 138 60" fill="none" xmlns="http://www.w3.org/2000/svg">
<path d="M77.3523 13.0909V48H70.1932L56.3011 27.8523H56.0795V48H47.642V13.0909H54.9034L68.642 33.2045H68.9318V13.0909H77.3523Z" fill="white"/>
<path d="M101.511 23.5568C101.398 22.3068 100.892 21.3352 99.9943 20.642C99.108 19.9375 97.8409 19.5852 96.1932 19.5852C95.1023 19.5852 94.1932 19.7273 93.4659 20.0114C92.7386 20.2955 92.1932 20.6875 91.8295 21.1875C91.4659 21.6761 91.2784 22.2386 91.267 22.875C91.2443 23.3977 91.3466 23.858 91.5739 24.2557C91.8125 24.6534 92.1534 25.0057 92.5966 25.3125C93.0511 25.608 93.5966 25.8693 94.233 26.0966C94.8693 26.3239 95.5852 26.5227 96.3807 26.6932L99.3807 27.375C101.108 27.75 102.631 28.25 103.949 28.875C105.278 29.5 106.392 30.2443 107.29 31.108C108.199 31.9716 108.886 32.9659 109.352 34.0909C109.818 35.2159 110.057 36.4773 110.068 37.875C110.057 40.0795 109.5 41.9716 108.398 43.5511C107.295 45.1307 105.71 46.3409 103.642 47.1818C101.585 48.0227 99.1023 48.4432 96.1932 48.4432C93.2727 48.4432 90.7273 48.0057 88.5568 47.1307C86.3864 46.2557 84.6989 44.9261 83.4943 43.142C82.2898 41.358 81.6705 39.1023 81.6364 36.375H89.7159C89.7841 37.5 90.0852 38.4375 90.6193 39.1875C91.1534 39.9375 91.8864 40.5057 92.8182 40.892C93.7614 41.2784 94.8523 41.4716 96.0909 41.4716C97.2273 41.4716 98.1932 41.3182 98.9886 41.0114C99.7955 40.7045 100.415 40.2784 100.847 39.733C101.278 39.1875 101.5 38.5625 101.511 37.858C101.5 37.1989 101.295 36.6364 100.898 36.1705C100.5 35.6932 99.8864 35.2841 99.0568 34.9432C98.2386 34.5909 97.1932 34.267 95.9205 33.9716L92.2727 33.1193C89.25 32.4261 86.8693 31.3068 85.1307 29.7614C83.392 28.2045 82.5284 26.1023 82.5398 23.4545C82.5284 21.2955 83.108 19.4034 84.2784 17.7784C85.4489 16.1534 87.0682 14.8864 89.1364 13.9773C91.2045 13.0682 93.5625 12.6136 96.2102 12.6136C98.9148 12.6136 101.261 13.0739 103.25 13.9943C105.25 14.9034 106.801 16.1818 107.903 17.8295C109.006 19.4773 109.568 21.3864 109.591 23.5568H101.511Z" fill="white"/>
<rect x="2.5" y="2.5" width="126" height="55" stroke="white" stroke-width="5"/>
<path d="M113.531 17.4943V12.2528H116.067C116.436 12.2528 116.763 12.3239 117.047 12.4659C117.336 12.608 117.558 12.8092 117.714 13.0696C117.875 13.33 117.956 13.6425 117.956 14.0071C117.956 14.3764 117.873 14.6913 117.707 14.9517C117.542 15.2074 117.312 15.4039 117.018 15.5412C116.73 15.6738 116.396 15.7401 116.017 15.7401H114.312V14.7102H115.747C115.96 14.7102 116.133 14.651 116.266 14.5327C116.398 14.4143 116.464 14.2391 116.464 14.0071C116.464 13.7656 116.398 13.5904 116.266 13.4815C116.133 13.3679 115.963 13.3111 115.754 13.3111H114.966V17.4943H113.531ZM116.94 15.0938L118.098 17.4943H116.528L115.463 15.0938H116.94ZM115.612 20.6193C114.826 20.6193 114.09 20.4725 113.403 20.179C112.717 19.8854 112.113 19.4782 111.592 18.9574C111.071 18.4366 110.664 17.8329 110.371 17.1463C110.077 16.4598 109.93 15.7235 109.93 14.9375C109.93 14.1515 110.077 13.4152 110.371 12.7287C110.664 12.0421 111.071 11.4384 111.592 10.9176C112.113 10.3968 112.717 9.98958 113.403 9.69602C114.09 9.40246 114.826 9.25568 115.612 9.25568C116.398 9.25568 117.134 9.40246 117.821 9.69602C118.508 9.98958 119.111 10.3968 119.632 10.9176C120.153 11.4384 120.56 12.0421 120.854 12.7287C121.147 13.4152 121.294 14.1515 121.294 14.9375C121.294 15.7235 121.147 16.4598 120.854 17.1463C120.56 17.8329 120.153 18.4366 119.632 18.9574C119.111 19.4782 118.508 19.8854 117.821 20.179C117.134 20.4725 116.398 20.6193 115.612 20.6193ZM115.612 19.071C116.379 19.071 117.075 18.8864 117.7 18.517C118.325 18.143 118.822 17.6435 119.192 17.0185C119.566 16.3935 119.753 15.6998 119.753 14.9375C119.753 14.1752 119.566 13.4815 119.192 12.8565C118.822 12.2315 118.323 11.7344 117.693 11.3651C117.068 10.991 116.375 10.804 115.612 10.804C114.85 10.804 114.156 10.991 113.531 11.3651C112.906 11.7344 112.407 12.2315 112.033 12.8565C111.663 13.4815 111.479 14.1752 111.479 14.9375C111.479 15.6998 111.663 16.3935 112.033 17.0185C112.407 17.6435 112.906 18.143 113.531 18.517C114.156 18.8864 114.85 19.071 115.612 19.071Z" fill="white"/>
<path d="M35.5511 24.4943C35.358 23.7784 35.0739 23.1477 34.6989 22.6023C34.3239 22.0455 33.8636 21.5739 33.3182 21.1875C32.7727 20.8011 32.1477 20.5114 31.4432 20.3182C30.7386 20.1136 29.9659 20.0114 29.125 20.0114C27.4318 20.0114 25.9659 20.4205 24.7273 21.2386C23.5 22.0568 22.5511 23.25 21.8807 24.8182C21.2102 26.375 20.875 28.267 20.875 30.4943C20.875 32.733 21.1989 34.642 21.8466 36.2216C22.4943 37.8011 23.4318 39.0057 24.6591 39.8352C25.8864 40.6648 27.375 41.0795 29.125 41.0795C30.6705 41.0795 31.9773 40.8295 33.0455 40.3295C34.125 39.8182 34.9432 39.0966 35.5 38.1648C36.0568 37.233 36.3352 36.1364 36.3352 34.875L37.9034 35.0625H29.4148V28.9091H44.4659V33.5284C44.4659 36.6534 43.8011 39.3295 42.4716 41.5568C41.1534 43.7841 39.3352 45.4943 37.017 46.6875C34.7102 47.8807 32.0568 48.4773 29.0568 48.4773C25.7273 48.4773 22.8011 47.7557 20.2784 46.3125C17.7557 44.8693 15.7898 42.8125 14.3807 40.142C12.9716 37.4602 12.267 34.2784 12.267 30.5966C12.267 27.733 12.6932 25.1932 13.5455 22.9773C14.3977 20.75 15.5852 18.8636 17.108 17.3182C18.642 15.7727 20.4148 14.6023 22.4261 13.8068C24.4489 13.0114 26.625 12.6136 28.9545 12.6136C30.9773 12.6136 32.858 12.9034 34.5966 13.483C36.3466 14.0625 37.892 14.8807 39.233 15.9375C40.5852 16.9943 41.6818 18.25 42.5227 19.7045C43.3636 21.1591 43.8864 22.7557 44.0909 24.4943H35.5511Z" fill="white"/>
</svg>
