<svg width="1251" height="218" viewBox="0 0 1251 218" fill="none" xmlns="http://www.w3.org/2000/svg">
<path d="M0 0H1251V218H0V0Z" fill="#D9D9D9"/>
<path d="M305.801 36.5455V182H275.972L218.088 98.0511H217.165V182H182.009V36.5455H212.264L269.509 120.352H270.716V36.5455H305.801Z" fill="white"/>
<path d="M406.631 80.1534C406.157 74.9451 404.05 70.8968 400.31 68.0085C396.616 65.0729 391.337 63.6051 384.472 63.6051C379.926 63.6051 376.138 64.197 373.108 65.3807C370.078 66.5644 367.805 68.1979 366.29 70.2812C364.775 72.3172 363.993 74.661 363.946 77.3125C363.851 79.4905 364.277 81.4081 365.224 83.0653C366.219 84.7225 367.639 86.1903 369.486 87.4688C371.38 88.6998 373.652 89.7888 376.304 90.7358C378.955 91.6828 381.938 92.5114 385.253 93.2216L397.753 96.0625C404.95 97.625 411.295 99.7083 416.787 102.312C422.327 104.917 426.967 108.018 430.707 111.616C434.495 115.215 437.36 119.358 439.301 124.045C441.242 128.733 442.237 133.989 442.284 139.812C442.237 148.998 439.917 156.882 435.324 163.463C430.731 170.045 424.126 175.087 415.509 178.591C406.938 182.095 396.593 183.847 384.472 183.847C372.303 183.847 361.697 182.024 352.653 178.378C343.61 174.732 336.579 169.192 331.56 161.759C326.541 154.325 323.96 144.926 323.818 133.562H357.483C357.767 138.25 359.022 142.156 361.247 145.281C363.473 148.406 366.527 150.774 370.409 152.384C374.339 153.993 378.884 154.798 384.045 154.798C388.78 154.798 392.805 154.159 396.119 152.881C399.481 151.602 402.062 149.827 403.861 147.554C405.66 145.281 406.583 142.677 406.631 139.741C406.583 136.995 405.731 134.652 404.074 132.71C402.417 130.722 399.86 129.017 396.403 127.597C392.994 126.129 388.638 124.779 383.335 123.548L368.136 119.997C355.542 117.109 345.622 112.445 338.378 106.006C331.134 99.5189 327.535 90.7595 327.582 79.7273C327.535 70.7311 329.95 62.8475 334.827 56.0767C339.704 49.3059 346.451 44.0265 355.068 40.2386C363.686 36.4508 373.51 34.5568 384.543 34.5568C395.812 34.5568 405.589 36.4744 413.875 40.3097C422.208 44.0975 428.671 49.4242 433.264 56.2898C437.857 63.1553 440.201 71.1098 440.295 80.1534H406.631Z" fill="white"/>
<rect x="14" y="14" width="456" height="190" stroke="white" stroke-width="28"/>
<rect x="1" y="1" width="1249" height="216" stroke="white" stroke-width="2"/>
<path d="M571.393 123.467C571 119.144 569.252 115.784 566.147 113.387C563.082 110.951 558.7 109.732 553.001 109.732C549.229 109.732 546.085 110.223 543.57 111.206C541.054 112.188 539.168 113.544 537.911 115.273C536.653 116.963 536.004 118.909 535.965 121.109C535.887 122.917 536.24 124.509 537.026 125.884C537.852 127.26 539.031 128.478 540.563 129.539C542.135 130.561 544.022 131.465 546.222 132.251C548.423 133.037 550.899 133.724 553.65 134.314L564.025 136.672C569.998 137.969 575.264 139.698 579.823 141.859C584.421 144.021 588.272 146.595 591.377 149.582C594.521 152.568 596.899 156.007 598.51 159.898C600.121 163.788 600.947 168.151 600.986 172.984C600.947 180.608 599.021 187.152 595.209 192.614C591.397 198.077 585.915 202.262 578.762 205.17C571.649 208.079 563.062 209.533 553.001 209.533C542.902 209.533 534.098 208.02 526.592 204.994C519.086 201.968 513.25 197.37 509.085 191.2C504.919 185.03 502.777 177.229 502.659 167.797H530.601C530.837 171.688 531.878 174.93 533.725 177.523C535.572 180.117 538.107 182.082 541.33 183.418C544.591 184.754 548.364 185.423 552.648 185.423C556.578 185.423 559.918 184.892 562.669 183.831C565.459 182.77 567.601 181.296 569.094 179.41C570.588 177.523 571.354 175.362 571.393 172.925C571.354 170.646 570.647 168.701 569.271 167.089C567.896 165.439 565.774 164.024 562.905 162.845C560.075 161.627 556.46 160.507 552.058 159.485L539.443 156.538C528.99 154.14 520.756 150.269 514.744 144.925C508.731 139.541 505.744 132.27 505.783 123.114C505.744 115.647 507.748 109.103 511.796 103.484C515.844 97.8639 521.444 93.482 528.597 90.3381C535.749 87.1941 543.904 85.6222 553.06 85.6222C562.414 85.6222 570.529 87.2138 577.406 90.397C584.323 93.541 589.687 97.9621 593.499 103.661C597.311 109.359 599.257 115.961 599.335 123.467H571.393ZM658.048 209.71C648.577 209.71 640.403 207.843 633.526 204.109C626.688 200.337 621.421 194.972 617.727 188.016C614.072 181.021 612.245 172.709 612.245 163.081C612.245 153.728 614.092 145.554 617.786 138.558C621.48 131.524 626.688 126.061 633.408 122.17C640.128 118.241 648.047 116.276 657.164 116.276C663.609 116.276 669.504 117.278 674.849 119.282C680.193 121.286 684.811 124.253 688.702 128.183C692.592 132.113 695.618 136.967 697.78 142.744C699.941 148.481 701.022 155.064 701.022 162.491V169.683H622.325V152.942H674.2C674.161 149.876 673.434 147.145 672.019 144.748C670.604 142.351 668.659 140.484 666.183 139.148C663.747 137.772 660.937 137.085 657.754 137.085C654.531 137.085 651.643 137.812 649.088 139.266C646.534 140.68 644.51 142.626 643.016 145.102C641.523 147.538 640.737 150.309 640.658 153.413V170.45C640.658 174.144 641.385 177.386 642.839 180.176C644.294 182.927 646.357 185.069 649.029 186.602C651.701 188.134 654.885 188.901 658.579 188.901C661.133 188.901 663.452 188.547 665.535 187.839C667.618 187.132 669.406 186.091 670.899 184.715C672.393 183.34 673.513 181.65 674.259 179.646L700.727 180.412C699.627 186.346 697.21 191.514 693.477 195.915C689.782 200.278 684.929 203.677 678.916 206.114C672.903 208.511 665.947 209.71 658.048 209.71ZM715.744 208V117.455H743.745V133.96H744.688C746.339 127.987 749.031 123.546 752.764 120.638C756.498 117.69 760.84 116.217 765.792 116.217C767.128 116.217 768.504 116.315 769.919 116.511C771.333 116.669 772.65 116.924 773.868 117.278V142.331C772.493 141.859 770.685 141.486 768.445 141.211C766.244 140.936 764.279 140.798 762.55 140.798C759.131 140.798 756.046 141.565 753.295 143.097C750.583 144.591 748.441 146.693 746.869 149.405C745.337 152.077 744.57 155.221 744.57 158.837V208H715.744ZM876.203 117.455L845.137 208H812.126L781.119 117.455H811.477L828.16 179.822H829.103L845.845 117.455H876.203ZM887.256 208V117.455H916.082V208H887.256ZM901.699 106.903C897.651 106.903 894.173 105.567 891.265 102.894C888.357 100.183 886.903 96.9207 886.903 93.1087C886.903 89.3359 888.357 86.1134 891.265 83.441C894.173 80.7294 897.651 79.3736 901.699 79.3736C905.786 79.3736 909.264 80.7294 912.133 83.441C915.041 86.1134 916.495 89.3359 916.495 93.1087C916.495 96.9207 915.041 100.183 912.133 102.894C909.264 105.567 905.786 106.903 901.699 106.903ZM976.696 209.71C967.147 209.71 958.953 207.745 952.115 203.815C945.316 199.885 940.089 194.422 936.434 187.427C932.779 180.392 930.952 172.257 930.952 163.022C930.952 153.747 932.779 145.612 936.434 138.617C940.128 131.583 945.375 126.1 952.174 122.17C959.012 118.241 967.166 116.276 976.637 116.276C985.008 116.276 992.298 117.789 998.507 120.815C1004.76 123.841 1009.63 128.124 1013.13 133.665C1016.66 139.167 1018.53 145.632 1018.73 153.06H991.787C991.237 148.422 989.665 144.787 987.071 142.154C984.517 139.521 981.176 138.205 977.05 138.205C973.71 138.205 970.782 139.148 968.267 141.034C965.752 142.881 963.787 145.632 962.372 149.287C960.996 152.902 960.309 157.383 960.309 162.727C960.309 168.072 960.996 172.591 962.372 176.286C963.787 179.94 965.752 182.711 968.267 184.597C970.782 186.444 973.71 187.368 977.05 187.368C979.722 187.368 982.08 186.798 984.124 185.658C986.207 184.519 987.916 182.848 989.252 180.648C990.589 178.408 991.434 175.696 991.787 172.513H1018.73C1018.45 179.98 1016.59 186.503 1013.13 192.084C1009.71 197.664 1004.89 202.007 998.684 205.112C992.514 208.177 985.185 209.71 976.696 209.71ZM1075.8 209.71C1066.33 209.71 1058.16 207.843 1051.28 204.109C1044.44 200.337 1039.18 194.972 1035.48 188.016C1031.83 181.021 1030 172.709 1030 163.081C1030 153.728 1031.85 145.554 1035.54 138.558C1039.24 131.524 1044.44 126.061 1051.16 122.17C1057.88 118.241 1065.8 116.276 1074.92 116.276C1081.36 116.276 1087.26 117.278 1092.6 119.282C1097.95 121.286 1102.57 124.253 1106.46 128.183C1110.35 132.113 1113.37 136.967 1115.54 142.744C1117.7 148.481 1118.78 155.064 1118.78 162.491V169.683H1040.08V152.942H1091.96C1091.92 149.876 1091.19 147.145 1089.78 144.748C1088.36 142.351 1086.41 140.484 1083.94 139.148C1081.5 137.772 1078.69 137.085 1075.51 137.085C1072.29 137.085 1069.4 137.812 1066.84 139.266C1064.29 140.68 1062.27 142.626 1060.77 145.102C1059.28 147.538 1058.49 150.309 1058.41 153.413V170.45C1058.41 174.144 1059.14 177.386 1060.6 180.176C1062.05 182.927 1064.11 185.069 1066.78 186.602C1069.46 188.134 1072.64 188.901 1076.33 188.901C1078.89 188.901 1081.21 188.547 1083.29 187.839C1085.37 187.132 1087.16 186.091 1088.66 184.715C1090.15 183.34 1091.27 181.65 1092.02 179.646L1118.48 180.412C1117.38 186.346 1114.97 191.514 1111.23 195.915C1107.54 200.278 1102.68 203.677 1096.67 206.114C1090.66 208.511 1083.7 209.71 1075.8 209.71ZM1212.55 145.102L1186.08 145.809C1185.81 143.923 1185.06 142.252 1183.84 140.798C1182.62 139.305 1181.03 138.146 1179.07 137.32C1177.14 136.456 1174.9 136.023 1172.35 136.023C1169.01 136.023 1166.16 136.692 1163.8 138.028C1161.48 139.364 1160.34 141.172 1160.38 143.451C1160.34 145.219 1161.05 146.752 1162.5 148.049C1164 149.346 1166.65 150.387 1170.46 151.173L1187.91 154.474C1196.95 156.204 1203.67 159.072 1208.07 163.081C1212.51 167.089 1214.75 172.395 1214.79 178.997C1214.75 185.206 1212.9 190.61 1209.25 195.208C1205.63 199.806 1200.68 203.382 1194.39 205.937C1188.11 208.452 1180.91 209.71 1172.82 209.71C1159.89 209.71 1149.69 207.057 1142.22 201.751C1134.8 196.407 1130.55 189.254 1129.49 180.294L1157.96 179.587C1158.59 182.888 1160.22 185.403 1162.86 187.132C1165.49 188.861 1168.85 189.726 1172.94 189.726C1176.63 189.726 1179.64 189.038 1181.96 187.663C1184.27 186.287 1185.45 184.46 1185.49 182.18C1185.45 180.137 1184.55 178.506 1182.78 177.288C1181.01 176.03 1178.24 175.048 1174.47 174.34L1158.67 171.334C1149.59 169.683 1142.83 166.638 1138.39 162.197C1133.95 157.717 1131.75 152.018 1131.79 145.102C1131.75 139.049 1133.36 133.882 1136.62 129.598C1139.89 125.275 1144.52 121.974 1150.54 119.695C1156.55 117.415 1163.64 116.276 1171.82 116.276C1184.08 116.276 1193.75 118.85 1200.82 123.998C1207.89 129.107 1211.8 136.141 1212.55 145.102Z" fill="white"/>
<path d="M547.102 28.9886C546.716 27.5568 546.148 26.2955 545.398 25.2045C544.648 24.0909 543.727 23.1477 542.636 22.375C541.545 21.6023 540.295 21.0227 538.886 20.6364C537.477 20.2273 535.932 20.0227 534.25 20.0227C530.864 20.0227 527.932 20.8409 525.455 22.4773C523 24.1136 521.102 26.5 519.761 29.6364C518.42 32.75 517.75 36.5341 517.75 40.9886C517.75 45.4659 518.398 49.2841 519.693 52.4432C520.989 55.6023 522.864 58.0114 525.318 59.6705C527.773 61.3295 530.75 62.1591 534.25 62.1591C537.341 62.1591 539.955 61.6591 542.091 60.6591C544.25 59.6364 545.886 58.1932 547 56.3295C548.114 54.4659 548.67 52.2727 548.67 49.75L551.807 50.125H534.83V37.8182H564.932V47.0568C564.932 53.3068 563.602 58.6591 560.943 63.1136C558.307 67.5682 554.67 70.9886 550.034 73.375C545.42 75.7614 540.114 76.9545 534.114 76.9545C527.455 76.9545 521.602 75.5114 516.557 72.625C511.511 69.7386 507.58 65.625 504.761 60.2841C501.943 54.9205 500.534 48.5568 500.534 41.1932C500.534 35.4659 501.386 30.3864 503.091 25.9545C504.795 21.5 507.17 17.7273 510.216 14.6364C513.284 11.5455 516.83 9.20454 520.852 7.61363C524.898 6.02272 529.25 5.22727 533.909 5.22727C537.955 5.22727 541.716 5.80682 545.193 6.96591C548.693 8.125 551.784 9.76136 554.466 11.875C557.17 13.9886 559.364 16.5 561.045 19.4091C562.727 22.3182 563.773 25.5114 564.182 28.9886H547.102ZM591.548 6.18182V76H574.878V6.18182H591.548ZM626.602 76.9886C621.102 76.9886 616.375 75.8636 612.42 73.6136C608.489 71.3409 605.455 68.1818 603.318 64.1364C601.205 60.0682 600.148 55.3523 600.148 49.9886C600.148 44.6023 601.205 39.8864 603.318 35.8409C605.455 31.7727 608.489 28.6136 612.42 26.3636C616.375 24.0909 621.102 22.9545 626.602 22.9545C632.102 22.9545 636.818 24.0909 640.75 26.3636C644.705 28.6136 647.739 31.7727 649.852 35.8409C651.989 39.8864 653.057 44.6023 653.057 49.9886C653.057 55.3523 651.989 60.0682 649.852 64.1364C647.739 68.1818 644.705 71.3409 640.75 73.6136C636.818 75.8636 632.102 76.9886 626.602 76.9886ZM626.705 64.4091C628.705 64.4091 630.398 63.7955 631.784 62.5682C633.17 61.3409 634.227 59.6364 634.955 57.4545C635.705 55.2727 636.08 52.75 636.08 49.8864C636.08 46.9773 635.705 44.4318 634.955 42.25C634.227 40.0682 633.17 38.3636 631.784 37.1364C630.398 35.9091 628.705 35.2955 626.705 35.2955C624.636 35.2955 622.886 35.9091 621.455 37.1364C620.045 38.3636 618.966 40.0682 618.216 42.25C617.489 44.4318 617.125 46.9773 617.125 49.8864C617.125 52.75 617.489 55.2727 618.216 57.4545C618.966 59.6364 620.045 61.3409 621.455 62.5682C622.886 63.7955 624.636 64.4091 626.705 64.4091ZM661.597 76V6.18182H678.267V32.6023H678.608C679.29 31.0114 680.256 29.4773 681.506 28C682.778 26.5227 684.392 25.3182 686.347 24.3864C688.324 23.4318 690.688 22.9545 693.438 22.9545C697.074 22.9545 700.472 23.9091 703.631 25.8182C706.812 27.7273 709.381 30.6705 711.335 34.6477C713.29 38.625 714.267 43.6932 714.267 49.8523C714.267 55.7841 713.324 60.75 711.438 64.75C709.574 68.75 707.051 71.75 703.869 73.75C700.71 75.75 697.199 76.75 693.335 76.75C690.699 76.75 688.415 76.3182 686.483 75.4545C684.551 74.5909 682.926 73.4545 681.608 72.0455C680.312 70.6364 679.313 69.125 678.608 67.5114H678.097V76H661.597ZM677.926 49.8182C677.926 52.6364 678.301 55.0909 679.051 57.1818C679.824 59.2727 680.926 60.8977 682.358 62.0568C683.812 63.1932 685.551 63.7614 687.574 63.7614C689.619 63.7614 691.358 63.1932 692.79 62.0568C694.222 60.8977 695.301 59.2727 696.028 57.1818C696.778 55.0909 697.153 52.6364 697.153 49.8182C697.153 47 696.778 44.5568 696.028 42.4886C695.301 40.4205 694.222 38.8182 692.79 37.6818C691.381 36.5455 689.642 35.9773 687.574 35.9773C685.528 35.9773 683.79 36.5341 682.358 37.6477C680.926 38.7614 679.824 40.3523 679.051 42.4205C678.301 44.4886 677.926 46.9545 677.926 49.8182ZM737.764 76.8864C734.423 76.8864 731.457 76.3295 728.866 75.2159C726.298 74.0795 724.264 72.375 722.764 70.1023C721.287 67.8068 720.548 64.9318 720.548 61.4773C720.548 58.5682 721.06 56.1136 722.082 54.1136C723.105 52.1136 724.514 50.4886 726.31 49.2386C728.105 47.9886 730.173 47.0455 732.514 46.4091C734.855 45.75 737.355 45.3068 740.014 45.0795C742.991 44.8068 745.389 44.5227 747.207 44.2273C749.026 43.9091 750.344 43.4659 751.162 42.8977C752.003 42.3068 752.423 41.4773 752.423 40.4091V40.2386C752.423 38.4886 751.821 37.1364 750.616 36.1818C749.412 35.2273 747.787 34.75 745.741 34.75C743.537 34.75 741.764 35.2273 740.423 36.1818C739.082 37.1364 738.23 38.4545 737.866 40.1364L722.491 39.5909C722.946 36.4091 724.116 33.5682 726.003 31.0682C727.912 28.5455 730.526 26.5682 733.844 25.1364C737.185 23.6818 741.196 22.9545 745.878 22.9545C749.219 22.9545 752.298 23.3523 755.116 24.1477C757.935 24.9205 760.389 26.0568 762.48 27.5568C764.571 29.0341 766.185 30.8523 767.321 33.0114C768.48 35.1705 769.06 37.6364 769.06 40.4091V76H753.378V68.7045H752.969C752.037 70.4773 750.844 71.9773 749.389 73.2045C747.957 74.4318 746.264 75.3523 744.31 75.9659C742.378 76.5795 740.196 76.8864 737.764 76.8864ZM742.912 65.9773C744.707 65.9773 746.321 65.6136 747.753 64.8864C749.207 64.1591 750.366 63.1591 751.23 61.8864C752.094 60.5909 752.526 59.0909 752.526 57.3864V52.4091C752.048 52.6591 751.469 52.8864 750.787 53.0909C750.128 53.2955 749.401 53.4886 748.605 53.6705C747.81 53.8523 746.991 54.0114 746.151 54.1477C745.31 54.2841 744.503 54.4091 743.73 54.5227C742.162 54.7727 740.821 55.1591 739.707 55.6818C738.616 56.2045 737.776 56.8864 737.185 57.7273C736.616 58.5455 736.332 59.5227 736.332 60.6591C736.332 62.3864 736.946 63.7045 738.173 64.6136C739.423 65.5227 741.003 65.9773 742.912 65.9773ZM795.923 6.18182V76H779.253V6.18182H795.923Z" fill="white"/>
<path d="M880.705 6.18182V76H866.386L838.602 35.7045H838.159V76H821.284V6.18182H835.807L863.284 46.4091H863.864V6.18182H880.705ZM915.793 76.9886C910.315 76.9886 905.588 75.9091 901.611 73.75C897.656 71.5682 894.611 68.4659 892.474 64.4432C890.361 60.3977 889.304 55.5909 889.304 50.0227C889.304 44.6136 890.372 39.8864 892.509 35.8409C894.645 31.7727 897.656 28.6136 901.543 26.3636C905.429 24.0909 910.009 22.9545 915.281 22.9545C919.009 22.9545 922.418 23.5341 925.509 24.6932C928.599 25.8523 931.27 27.5682 933.52 29.8409C935.77 32.1136 937.52 34.9205 938.77 38.2614C940.02 41.5795 940.645 45.3864 940.645 49.6818V53.8409H895.134V44.1591H925.134C925.111 42.3864 924.69 40.8068 923.872 39.4205C923.054 38.0341 921.929 36.9545 920.497 36.1818C919.088 35.3864 917.463 34.9886 915.622 34.9886C913.759 34.9886 912.088 35.4091 910.611 36.25C909.134 37.0682 907.963 38.1932 907.099 39.625C906.236 41.0341 905.781 42.6364 905.736 44.4318V54.2841C905.736 56.4205 906.156 58.2955 906.997 59.9091C907.838 61.5 909.031 62.7386 910.577 63.625C912.122 64.5114 913.963 64.9545 916.099 64.9545C917.577 64.9545 918.918 64.75 920.122 64.3409C921.327 63.9318 922.361 63.3295 923.224 62.5341C924.088 61.7386 924.736 60.7614 925.168 59.6023L940.474 60.0455C939.838 63.4773 938.44 66.4659 936.281 69.0114C934.145 71.5341 931.338 73.5 927.861 74.9091C924.384 76.2955 920.361 76.9886 915.793 76.9886ZM978.716 23.6364V35.9091H945.682V23.6364H978.716ZM952.602 11.0909H969.273V59.5341C969.273 60.5568 969.432 61.3864 969.75 62.0227C970.091 62.6364 970.58 63.0795 971.216 63.3523C971.852 63.6023 972.614 63.7273 973.5 63.7273C974.136 63.7273 974.807 63.6705 975.511 63.5568C976.239 63.4205 976.784 63.3068 977.148 63.2159L979.67 75.25C978.875 75.4773 977.75 75.7614 976.295 76.1023C974.864 76.4432 973.148 76.6591 971.148 76.75C967.239 76.9318 963.886 76.4773 961.091 75.3864C958.318 74.2727 956.193 72.5455 954.716 70.2045C953.261 67.8636 952.557 64.9205 952.602 61.375V11.0909ZM997.006 76L983.369 23.6364H1000.11L1007.16 57.1818H1007.61L1015.18 23.6364H1031.51L1039.28 56.9432H1039.72L1046.57 23.6364H1063.31L1049.64 76H1031.81L1023.63 45.4886H1023.05L1014.87 76H997.006ZM1093.32 76.9886C1087.82 76.9886 1083.09 75.8636 1079.14 73.6136C1075.21 71.3409 1072.17 68.1818 1070.04 64.1364C1067.92 60.0682 1066.87 55.3523 1066.87 49.9886C1066.87 44.6023 1067.92 39.8864 1070.04 35.8409C1072.17 31.7727 1075.21 28.6136 1079.14 26.3636C1083.09 24.0909 1087.82 22.9545 1093.32 22.9545C1098.82 22.9545 1103.54 24.0909 1107.47 26.3636C1111.42 28.6136 1114.46 31.7727 1116.57 35.8409C1118.71 39.8864 1119.78 44.6023 1119.78 49.9886C1119.78 55.3523 1118.71 60.0682 1116.57 64.1364C1114.46 68.1818 1111.42 71.3409 1107.47 73.6136C1103.54 75.8636 1098.82 76.9886 1093.32 76.9886ZM1093.42 64.4091C1095.42 64.4091 1097.12 63.7955 1098.5 62.5682C1099.89 61.3409 1100.95 59.6364 1101.67 57.4545C1102.42 55.2727 1102.8 52.75 1102.8 49.8864C1102.8 46.9773 1102.42 44.4318 1101.67 42.25C1100.95 40.0682 1099.89 38.3636 1098.5 37.1364C1097.12 35.9091 1095.42 35.2955 1093.42 35.2955C1091.36 35.2955 1089.61 35.9091 1088.17 37.1364C1086.76 38.3636 1085.68 40.0682 1084.93 42.25C1084.21 44.4318 1083.84 46.9773 1083.84 49.8864C1083.84 52.75 1084.21 55.2727 1084.93 57.4545C1085.68 59.6364 1086.76 61.3409 1088.17 62.5682C1089.61 63.7955 1091.36 64.4091 1093.42 64.4091ZM1128.32 76V23.6364H1144.51V33.1818H1145.05C1146.01 29.7273 1147.57 27.1591 1149.72 25.4773C1151.88 23.7727 1154.39 22.9205 1157.26 22.9205C1158.03 22.9205 1158.83 22.9773 1159.64 23.0909C1160.46 23.1818 1161.22 23.3295 1161.93 23.5341V38.0227C1161.13 37.75 1160.09 37.5341 1158.79 37.375C1157.52 37.2159 1156.38 37.1364 1155.38 37.1364C1153.41 37.1364 1151.62 37.5795 1150.03 38.4659C1148.46 39.3295 1147.22 40.5455 1146.32 42.1136C1145.43 43.6591 1144.99 45.4773 1144.99 47.5682V76H1128.32ZM1183.76 62.2614L1183.82 42.3864H1186.14L1200.87 23.6364H1219.76L1197.87 50.5H1193.47L1183.76 62.2614ZM1168.72 76V6.18182H1185.39V76H1168.72ZM1201.24 76L1187.54 54.25L1198.52 42.4205L1220.51 76H1201.24Z" fill="white"/>
<path d="M1219.97 103.687V92.1562H1225.55C1226.36 92.1562 1227.08 92.3125 1227.7 92.625C1228.34 92.9375 1228.83 93.3802 1229.17 93.9531C1229.53 94.526 1229.7 95.2135 1229.7 96.0156C1229.7 96.8281 1229.52 97.5208 1229.16 98.0937C1228.79 98.6562 1228.29 99.0885 1227.64 99.3906C1227.01 99.6823 1226.27 99.8281 1225.44 99.8281H1221.69V97.5625H1224.84C1225.31 97.5625 1225.69 97.4323 1225.98 97.1719C1226.28 96.9115 1226.42 96.526 1226.42 96.0156C1226.42 95.4844 1226.28 95.099 1225.98 94.8594C1225.69 94.6094 1225.32 94.4844 1224.86 94.4844H1223.13V103.687H1219.97ZM1227.47 98.4062L1230.02 103.687H1226.56L1224.22 98.4062H1227.47ZM1224.55 110.562C1222.82 110.562 1221.2 110.24 1219.69 109.594C1218.18 108.948 1216.85 108.052 1215.7 106.906C1214.56 105.76 1213.66 104.432 1213.02 102.922C1212.37 101.411 1212.05 99.7917 1212.05 98.0625C1212.05 96.3333 1212.37 94.7135 1213.02 93.2031C1213.66 91.6927 1214.56 90.3646 1215.7 89.2188C1216.85 88.0729 1218.18 87.1771 1219.69 86.5312C1221.2 85.8854 1222.82 85.5625 1224.55 85.5625C1226.28 85.5625 1227.9 85.8854 1229.41 86.5312C1230.92 87.1771 1232.24 88.0729 1233.39 89.2188C1234.54 90.3646 1235.43 91.6927 1236.08 93.2031C1236.72 94.7135 1237.05 96.3333 1237.05 98.0625C1237.05 99.7917 1236.72 101.411 1236.08 102.922C1235.43 104.432 1234.54 105.76 1233.39 106.906C1232.24 108.052 1230.92 108.948 1229.41 109.594C1227.9 110.24 1226.28 110.562 1224.55 110.562ZM1224.55 107.156C1226.23 107.156 1227.77 106.75 1229.14 105.937C1230.52 105.115 1231.61 104.016 1232.42 102.641C1233.24 101.266 1233.66 99.7396 1233.66 98.0625C1233.66 96.3854 1233.24 94.8594 1232.42 93.4844C1231.61 92.1094 1230.51 91.0156 1229.13 90.2031C1227.75 89.3802 1226.22 88.9687 1224.55 88.9687C1222.87 88.9687 1221.34 89.3802 1219.97 90.2031C1218.59 91.0156 1217.49 92.1094 1216.67 93.4844C1215.86 94.8594 1215.45 96.3854 1215.45 98.0625C1215.45 99.7396 1215.86 101.266 1216.67 102.641C1217.49 104.016 1218.59 105.115 1219.97 105.937C1221.34 106.75 1222.87 107.156 1224.55 107.156Z" fill="white"/>
<path d="M131.463 84.0597C130.658 81.0767 129.474 78.4489 127.912 76.1761C126.349 73.8561 124.432 71.8911 122.159 70.2812C119.886 68.6714 117.282 67.464 114.347 66.6591C111.411 65.8068 108.191 65.3807 104.688 65.3807C97.6326 65.3807 91.5246 67.0852 86.3636 70.4943C81.25 73.9034 77.2964 78.875 74.5028 85.4091C71.7093 91.8958 70.3125 99.7794 70.3125 109.06C70.3125 118.387 71.6619 126.342 74.3608 132.923C77.0597 139.505 80.9659 144.524 86.0795 147.98C91.1932 151.437 97.3958 153.165 104.688 153.165C111.127 153.165 116.572 152.123 121.023 150.04C125.521 147.909 128.93 144.902 131.25 141.02C133.57 137.137 134.73 132.568 134.73 127.312L141.264 128.094H105.895V102.455H168.608V121.702C168.608 134.723 165.838 145.873 160.298 155.153C154.806 164.434 147.23 171.56 137.571 176.531C127.959 181.503 116.903 183.989 104.403 183.989C90.5303 183.989 78.3381 180.982 67.8267 174.969C57.3153 168.955 49.1241 160.385 43.2528 149.259C37.3816 138.084 34.446 124.827 34.446 109.486C34.446 97.554 36.2216 86.9716 39.7727 77.7386C43.3239 68.4583 48.2718 60.5985 54.6165 54.1591C61.0085 47.7197 68.3949 42.8428 76.7756 39.5284C85.2036 36.214 94.2708 34.5568 103.977 34.5568C112.405 34.5568 120.241 35.7642 127.486 38.179C134.777 40.5938 141.217 44.0028 146.804 48.4062C152.438 52.8097 157.008 58.0417 160.511 64.1023C164.015 70.1629 166.193 76.8153 167.045 84.0597H131.463Z" fill="white"/>
</svg>
