<svg width="299" height="60" viewBox="0 0 299 60" fill="none" xmlns="http://www.w3.org/2000/svg">
<path d="M81.0483 11.1818V49H73.2926L58.2429 27.1733H58.0028V49H48.8622V11.1818H56.7287L71.6122 32.9716H71.9261V11.1818H81.0483Z" fill="white"/>
<path d="M107.304 22.5199C107.181 21.1657 106.633 20.1132 105.661 19.3622C104.7 18.599 103.328 18.2173 101.543 18.2173C100.361 18.2173 99.3759 18.3712 98.5881 18.679C97.8002 18.9867 97.2093 19.4115 96.8153 19.9531C96.4214 20.4825 96.2183 21.0919 96.206 21.7812C96.1813 22.3475 96.2921 22.8461 96.5384 23.277C96.7969 23.7079 97.1662 24.0895 97.6463 24.4219C98.1387 24.742 98.7296 25.0251 99.419 25.2713C100.108 25.5175 100.884 25.733 101.746 25.9176L104.996 26.6562C106.867 27.0625 108.517 27.6042 109.945 28.2812C111.385 28.9583 112.591 29.7647 113.564 30.7003C114.549 31.6359 115.294 32.7131 115.798 33.9318C116.303 35.1506 116.562 36.517 116.574 38.0312C116.562 40.4195 115.958 42.4692 114.764 44.1804C113.57 45.8916 111.853 47.2027 109.612 48.1136C107.384 49.0246 104.694 49.4801 101.543 49.4801C98.3788 49.4801 95.6212 49.0062 93.2699 48.0582C90.9186 47.1103 89.0904 45.67 87.7855 43.7372C86.4806 41.8045 85.8097 39.3608 85.7727 36.4062H94.5256C94.5994 37.625 94.9257 38.6406 95.5043 39.4531C96.0829 40.2656 96.8769 40.8812 97.8864 41.2997C98.9081 41.7183 100.09 41.9276 101.432 41.9276C102.663 41.9276 103.709 41.7614 104.571 41.429C105.445 41.0966 106.116 40.6349 106.584 40.044C107.052 39.4531 107.292 38.776 107.304 38.0128C107.292 37.2988 107.07 36.6894 106.639 36.1847C106.208 35.6676 105.544 35.2244 104.645 34.8551C103.759 34.4735 102.626 34.1226 101.247 33.8026L97.2955 32.8793C94.0208 32.1283 91.4418 30.9157 89.5582 29.2415C87.6747 27.5549 86.7391 25.2775 86.7514 22.4091C86.7391 20.0701 87.367 18.0204 88.6349 16.2599C89.9029 14.4995 91.6572 13.1269 93.8977 12.142C96.1383 11.1572 98.6927 10.6648 101.561 10.6648C104.491 10.6648 107.033 11.1634 109.188 12.1605C111.354 13.1454 113.035 14.5303 114.229 16.3153C115.423 18.1004 116.032 20.1686 116.057 22.5199H107.304Z" fill="white"/>
<rect x="2.5" y="2.5" width="125" height="55" stroke="white" stroke-width="5"/>
<path d="M148.134 33.6676C148.048 32.7301 147.669 32.0014 146.996 31.4815C146.331 30.9531 145.381 30.6889 144.145 30.6889C143.327 30.6889 142.645 30.7955 142.099 31.0085C141.554 31.2216 141.145 31.5156 140.872 31.8906C140.599 32.2571 140.459 32.679 140.45 33.1562C140.433 33.5483 140.51 33.8935 140.68 34.1918C140.859 34.4901 141.115 34.7543 141.447 34.9844C141.788 35.206 142.197 35.402 142.675 35.5724C143.152 35.7429 143.689 35.892 144.286 36.0199L146.536 36.5312C147.831 36.8125 148.973 37.1875 149.962 37.6562C150.959 38.125 151.794 38.6832 152.467 39.331C153.149 39.9787 153.665 40.7244 154.014 41.5682C154.364 42.4119 154.543 43.358 154.551 44.4062C154.543 46.0597 154.125 47.4787 153.298 48.6634C152.472 49.848 151.283 50.7557 149.732 51.3864C148.189 52.017 146.327 52.3324 144.145 52.3324C141.955 52.3324 140.045 52.0043 138.418 51.348C136.79 50.6918 135.524 49.6946 134.621 48.3565C133.717 47.0185 133.253 45.3267 133.227 43.2812H139.287C139.338 44.125 139.564 44.8281 139.964 45.3906C140.365 45.9531 140.915 46.3793 141.614 46.669C142.321 46.9588 143.139 47.1037 144.068 47.1037C144.92 47.1037 145.645 46.9886 146.241 46.7585C146.847 46.5284 147.311 46.2088 147.635 45.7997C147.959 45.3906 148.125 44.9219 148.134 44.3935C148.125 43.8991 147.972 43.4773 147.673 43.1278C147.375 42.7699 146.915 42.4631 146.293 42.2074C145.679 41.9432 144.895 41.7003 143.94 41.4787L141.205 40.8395C138.938 40.3196 137.152 39.4801 135.848 38.321C134.544 37.1534 133.896 35.5767 133.905 33.5909C133.896 31.9716 134.331 30.5526 135.209 29.3338C136.087 28.1151 137.301 27.1648 138.852 26.483C140.403 25.8011 142.172 25.4602 144.158 25.4602C146.186 25.4602 147.946 25.8054 149.438 26.4957C150.938 27.1776 152.101 28.1364 152.928 29.3722C153.754 30.608 154.176 32.0398 154.193 33.6676H148.134ZM166.926 52.3707C164.872 52.3707 163.099 51.9659 161.608 51.1562C160.125 50.3381 158.983 49.1747 158.182 47.6662C157.389 46.1491 156.993 44.3466 156.993 42.2585C156.993 40.2301 157.393 38.4574 158.195 36.9403C158.996 35.4148 160.125 34.2301 161.582 33.3864C163.04 32.5341 164.757 32.108 166.734 32.108C168.132 32.108 169.411 32.3253 170.57 32.7599C171.729 33.1946 172.73 33.8381 173.574 34.6903C174.418 35.5426 175.074 36.5952 175.543 37.848C176.011 39.0923 176.246 40.5199 176.246 42.1307V43.6903H159.179V40.0597H170.429C170.42 39.3949 170.263 38.8026 169.956 38.2827C169.649 37.7628 169.227 37.358 168.69 37.0682C168.162 36.7699 167.553 36.6207 166.862 36.6207C166.163 36.6207 165.537 36.7784 164.983 37.0938C164.429 37.4006 163.99 37.8224 163.666 38.3594C163.342 38.8878 163.172 39.4886 163.155 40.1619V43.8565C163.155 44.6577 163.313 45.3608 163.628 45.9659C163.943 46.5625 164.391 47.027 164.97 47.3594C165.55 47.6918 166.24 47.858 167.041 47.858C167.595 47.858 168.098 47.7812 168.55 47.6278C169.001 47.4744 169.389 47.2486 169.713 46.9503C170.037 46.652 170.28 46.2855 170.442 45.8509L176.182 46.017C175.943 47.304 175.419 48.4247 174.609 49.3793C173.808 50.3253 172.756 51.0625 171.452 51.5909C170.148 52.1108 168.639 52.3707 166.926 52.3707ZM179.439 52V32.3636H185.511V35.9432H185.716C186.074 34.6477 186.657 33.6847 187.467 33.054C188.277 32.4148 189.218 32.0952 190.292 32.0952C190.582 32.0952 190.88 32.1165 191.187 32.1591C191.494 32.1932 191.779 32.2486 192.044 32.3253V37.7585C191.745 37.6562 191.353 37.5753 190.868 37.5156C190.39 37.456 189.964 37.4261 189.589 37.4261C188.848 37.4261 188.179 37.5923 187.582 37.9247C186.994 38.2486 186.529 38.7045 186.189 39.2926C185.856 39.8722 185.69 40.554 185.69 41.3381V52H179.439ZM214.237 32.3636L207.5 52H200.341L193.616 32.3636H200.2L203.818 45.8892H204.022L207.653 32.3636H214.237ZM216.634 52V32.3636H222.885V52H216.634ZM219.766 30.0753C218.888 30.0753 218.134 29.7855 217.503 29.206C216.873 28.6179 216.557 27.9105 216.557 27.0838C216.557 26.2656 216.873 25.5668 217.503 24.9872C218.134 24.3991 218.888 24.1051 219.766 24.1051C220.652 24.1051 221.407 24.3991 222.029 24.9872C222.659 25.5668 222.975 26.2656 222.975 27.0838C222.975 27.9105 222.659 28.6179 222.029 29.206C221.407 29.7855 220.652 30.0753 219.766 30.0753ZM236.031 52.3707C233.96 52.3707 232.183 51.9446 230.7 51.0923C229.225 50.2401 228.092 49.0554 227.299 47.5384C226.506 46.0128 226.11 44.2486 226.11 42.2457C226.11 40.2344 226.506 38.4702 227.299 36.9531C228.1 35.4276 229.238 34.2386 230.712 33.3864C232.195 32.5341 233.964 32.108 236.018 32.108C237.833 32.108 239.414 32.4361 240.761 33.0923C242.116 33.7486 243.173 34.6776 243.931 35.8793C244.698 37.0724 245.103 38.4744 245.146 40.0852H239.303C239.184 39.0795 238.843 38.2912 238.281 37.7202C237.727 37.1491 237.002 36.8636 236.107 36.8636C235.383 36.8636 234.748 37.0682 234.202 37.4773C233.657 37.8778 233.231 38.4744 232.924 39.267C232.626 40.0511 232.477 41.0227 232.477 42.1818C232.477 43.3409 232.626 44.321 232.924 45.1222C233.231 45.9148 233.657 46.5156 234.202 46.9247C234.748 47.3253 235.383 47.5256 236.107 47.5256C236.687 47.5256 237.198 47.402 237.641 47.1548C238.093 46.9077 238.464 46.5455 238.754 46.0682C239.043 45.5824 239.227 44.9943 239.303 44.304H245.146C245.086 45.9233 244.681 47.3381 243.931 48.5483C243.19 49.7585 242.146 50.7003 240.799 51.3736C239.461 52.0384 237.871 52.3707 236.031 52.3707ZM257.524 52.3707C255.47 52.3707 253.697 51.9659 252.206 51.1562C250.723 50.3381 249.581 49.1747 248.779 47.6662C247.987 46.1491 247.591 44.3466 247.591 42.2585C247.591 40.2301 247.991 38.4574 248.792 36.9403C249.593 35.4148 250.723 34.2301 252.18 33.3864C253.637 32.5341 255.355 32.108 257.332 32.108C258.73 32.108 260.008 32.3253 261.167 32.7599C262.326 33.1946 263.328 33.8381 264.172 34.6903C265.015 35.5426 265.672 36.5952 266.14 37.848C266.609 39.0923 266.843 40.5199 266.843 42.1307V43.6903H249.777V40.0597H261.027C261.018 39.3949 260.86 38.8026 260.554 38.2827C260.247 37.7628 259.825 37.358 259.288 37.0682C258.76 36.7699 258.15 36.6207 257.46 36.6207C256.761 36.6207 256.135 36.7784 255.581 37.0938C255.027 37.4006 254.588 37.8224 254.264 38.3594C253.94 38.8878 253.77 39.4886 253.752 40.1619V43.8565C253.752 44.6577 253.91 45.3608 254.225 45.9659C254.541 46.5625 254.988 47.027 255.568 47.3594C256.147 47.6918 256.838 47.858 257.639 47.858C258.193 47.858 258.696 47.7812 259.147 47.6278C259.599 47.4744 259.987 47.2486 260.311 46.9503C260.635 46.652 260.877 46.2855 261.039 45.8509L266.779 46.017C266.541 47.304 266.017 48.4247 265.207 49.3793C264.406 50.3253 263.353 51.0625 262.049 51.5909C260.745 52.1108 259.237 52.3707 257.524 52.3707ZM287.18 38.3594L281.44 38.5128C281.38 38.1037 281.218 37.7415 280.954 37.4261C280.69 37.1023 280.344 36.8509 279.918 36.6719C279.501 36.4844 279.015 36.3906 278.461 36.3906C277.737 36.3906 277.119 36.5355 276.607 36.8253C276.104 37.1151 275.857 37.5071 275.866 38.0014C275.857 38.3849 276.011 38.7173 276.326 38.9986C276.65 39.2798 277.225 39.5057 278.052 39.6761L281.836 40.392C283.796 40.767 285.254 41.3892 286.208 42.2585C287.171 43.1278 287.657 44.2784 287.665 45.7102C287.657 47.0568 287.256 48.2287 286.464 49.2259C285.68 50.223 284.606 50.9986 283.242 51.5526C281.879 52.098 280.319 52.3707 278.563 52.3707C275.759 52.3707 273.548 51.7955 271.928 50.6449C270.317 49.4858 269.397 47.9347 269.167 45.9915L275.342 45.8381C275.478 46.554 275.832 47.0994 276.403 47.4744C276.974 47.8494 277.702 48.0369 278.589 48.0369C279.39 48.0369 280.042 47.8878 280.545 47.5895C281.048 47.2912 281.303 46.8949 281.312 46.4006C281.303 45.9574 281.107 45.6037 280.724 45.3395C280.34 45.0668 279.739 44.8537 278.921 44.7003L275.495 44.0483C273.526 43.6903 272.06 43.0298 271.097 42.0668C270.134 41.0952 269.657 39.8594 269.665 38.3594C269.657 37.0469 270.006 35.9261 270.714 34.9972C271.421 34.0597 272.427 33.3438 273.731 32.8494C275.035 32.3551 276.573 32.108 278.346 32.108C281.005 32.108 283.102 32.6662 284.636 33.7827C286.17 34.8906 287.018 36.4162 287.18 38.3594Z" fill="white"/>
<path d="M142.646 11.206C142.566 10.9077 142.447 10.6449 142.291 10.4176C142.135 10.1856 141.943 9.98911 141.716 9.82812C141.489 9.66714 141.228 9.5464 140.935 9.46591C140.641 9.38068 140.319 9.33807 139.969 9.33807C139.263 9.33807 138.652 9.50852 138.136 9.84943C137.625 10.1903 137.23 10.6875 136.95 11.3409C136.671 11.9896 136.531 12.7779 136.531 13.706C136.531 14.6387 136.666 15.4342 136.936 16.0923C137.206 16.7505 137.597 17.2524 138.108 17.598C138.619 17.9437 139.24 18.1165 139.969 18.1165C140.613 18.1165 141.157 18.0123 141.602 17.804C142.052 17.5909 142.393 17.2902 142.625 16.902C142.857 16.5137 142.973 16.0568 142.973 15.5312L143.626 15.6094H140.089V13.0455H146.361V14.9702C146.361 16.2723 146.084 17.3873 145.53 18.3153C144.981 19.2434 144.223 19.956 143.257 20.4531C142.296 20.9503 141.19 21.1989 139.94 21.1989C138.553 21.1989 137.334 20.8982 136.283 20.2969C135.232 19.6955 134.412 18.8385 133.825 17.7259C133.238 16.6084 132.945 15.2827 132.945 13.7486C132.945 12.5554 133.122 11.4972 133.477 10.5739C133.832 9.64583 134.327 8.85985 134.962 8.21591C135.601 7.57197 136.339 7.08428 137.178 6.75284C138.02 6.4214 138.927 6.25568 139.898 6.25568C140.741 6.25568 141.524 6.37642 142.249 6.6179C142.978 6.85938 143.622 7.20028 144.18 7.64062C144.744 8.08097 145.201 8.60417 145.551 9.21023C145.902 9.81629 146.119 10.4815 146.205 11.206H142.646ZM151.906 6.45455V21H148.433V6.45455H151.906ZM159.209 21.206C158.063 21.206 157.078 20.9716 156.254 20.5028C155.435 20.0294 154.803 19.3712 154.358 18.5284C153.918 17.6809 153.697 16.6984 153.697 15.581C153.697 14.4588 153.918 13.4763 154.358 12.6335C154.803 11.786 155.435 11.1278 156.254 10.6591C157.078 10.1856 158.063 9.94886 159.209 9.94886C160.355 9.94886 161.337 10.1856 162.156 10.6591C162.98 11.1278 163.612 11.786 164.053 12.6335C164.498 13.4763 164.72 14.4588 164.72 15.581C164.72 16.6984 164.498 17.6809 164.053 18.5284C163.612 19.3712 162.98 20.0294 162.156 20.5028C161.337 20.9716 160.355 21.206 159.209 21.206ZM159.23 18.5852C159.647 18.5852 160 18.4574 160.288 18.2017C160.577 17.946 160.797 17.5909 160.949 17.1364C161.105 16.6818 161.183 16.1562 161.183 15.5597C161.183 14.9536 161.105 14.4233 160.949 13.9688C160.797 13.5142 160.577 13.1591 160.288 12.9034C160 12.6477 159.647 12.5199 159.23 12.5199C158.799 12.5199 158.435 12.6477 158.136 12.9034C157.843 13.1591 157.618 13.5142 157.462 13.9688C157.31 14.4233 157.234 14.9536 157.234 15.5597C157.234 16.1562 157.31 16.6818 157.462 17.1364C157.618 17.5909 157.843 17.946 158.136 18.2017C158.435 18.4574 158.799 18.5852 159.23 18.5852ZM166.499 21V6.45455H169.972V11.9588H170.043C170.185 11.6274 170.387 11.3078 170.647 11C170.912 10.6922 171.248 10.4413 171.656 10.2472C172.067 10.0483 172.56 9.94886 173.133 9.94886C173.89 9.94886 174.598 10.1477 175.256 10.5455C175.919 10.9432 176.454 11.5563 176.862 12.3849C177.269 13.2135 177.472 14.2694 177.472 15.5526C177.472 16.7884 177.276 17.8229 176.883 18.6562C176.495 19.4896 175.969 20.1146 175.306 20.5312C174.648 20.9479 173.916 21.1562 173.112 21.1562C172.562 21.1562 172.086 21.0663 171.684 20.8864C171.281 20.7064 170.943 20.4697 170.668 20.1761C170.398 19.8826 170.19 19.5677 170.043 19.2315H169.937V21H166.499ZM169.901 15.5455C169.901 16.1326 169.979 16.6439 170.136 17.0795C170.297 17.5152 170.526 17.8537 170.825 18.0952C171.128 18.3319 171.49 18.4503 171.911 18.4503C172.337 18.4503 172.7 18.3319 172.998 18.0952C173.296 17.8537 173.521 17.5152 173.673 17.0795C173.829 16.6439 173.907 16.1326 173.907 15.5455C173.907 14.9583 173.829 14.4493 173.673 14.0185C173.521 13.5876 173.296 13.2538 172.998 13.017C172.704 12.7803 172.342 12.6619 171.911 12.6619C171.485 12.6619 171.123 12.7779 170.825 13.0099C170.526 13.242 170.297 13.5734 170.136 14.0043C169.979 14.4351 169.901 14.9489 169.901 15.5455ZM182.368 21.1847C181.672 21.1847 181.054 21.0687 180.514 20.8366C179.979 20.5999 179.555 20.2448 179.243 19.7713C178.935 19.2931 178.781 18.6941 178.781 17.9744C178.781 17.3684 178.887 16.857 179.1 16.4403C179.314 16.0237 179.607 15.6851 179.981 15.4247C180.355 15.1643 180.786 14.9678 181.274 14.8352C181.761 14.6979 182.282 14.6056 182.836 14.5582C183.457 14.5014 183.956 14.4422 184.335 14.3807C184.714 14.3144 184.988 14.2221 185.159 14.1037C185.334 13.9806 185.422 13.8078 185.422 13.5852V13.5497C185.422 13.1851 185.296 12.9034 185.045 12.7045C184.794 12.5057 184.456 12.4062 184.029 12.4062C183.57 12.4062 183.201 12.5057 182.922 12.7045C182.642 12.9034 182.465 13.178 182.389 13.5284L179.186 13.4148C179.28 12.7519 179.524 12.16 179.917 11.6392C180.315 11.1136 180.859 10.7017 181.551 10.4034C182.247 10.1004 183.083 9.94886 184.058 9.94886C184.754 9.94886 185.395 10.0317 185.983 10.1974C186.57 10.3584 187.081 10.5952 187.517 10.9077C187.952 11.2154 188.288 11.5942 188.525 12.044C188.767 12.4938 188.887 13.0076 188.887 13.5852V21H185.62V19.4801H185.535C185.341 19.8494 185.092 20.1619 184.789 20.4176C184.491 20.6733 184.138 20.8651 183.731 20.9929C183.329 21.1207 182.874 21.1847 182.368 21.1847ZM183.44 18.9119C183.814 18.9119 184.15 18.8362 184.449 18.6847C184.752 18.5331 184.993 18.3248 185.173 18.0597C185.353 17.7898 185.443 17.4773 185.443 17.1222V16.0852C185.343 16.1373 185.223 16.1847 185.081 16.2273C184.943 16.2699 184.792 16.3101 184.626 16.348C184.46 16.3859 184.29 16.419 184.115 16.4474C183.94 16.4759 183.771 16.5019 183.61 16.5256C183.284 16.5777 183.004 16.6581 182.772 16.767C182.545 16.8759 182.37 17.018 182.247 17.1932C182.128 17.3636 182.069 17.5672 182.069 17.804C182.069 18.1638 182.197 18.4384 182.453 18.6278C182.713 18.8172 183.042 18.9119 183.44 18.9119ZM194.484 6.45455V21H191.011V6.45455H194.484Z" fill="white"/>
<path d="M218.48 6.45455V21H215.497L209.709 12.6051H209.616V21H206.101V6.45455H209.126L214.851 14.8352H214.972V6.45455H218.48ZM225.79 21.206C224.649 21.206 223.664 20.9811 222.836 20.5312C222.012 20.0767 221.377 19.4304 220.932 18.5923C220.492 17.7495 220.272 16.7481 220.272 15.5881C220.272 14.4612 220.494 13.4763 220.939 12.6335C221.384 11.786 222.012 11.1278 222.821 10.6591C223.631 10.1856 224.585 9.94886 225.684 9.94886C226.46 9.94886 227.17 10.0696 227.814 10.3111C228.458 10.5526 229.015 10.91 229.483 11.3835C229.952 11.857 230.317 12.4418 230.577 13.1378C230.837 13.8291 230.968 14.6222 230.968 15.517V16.3835H221.486V14.3665H227.736C227.731 13.9972 227.644 13.6681 227.473 13.3793C227.303 13.0904 227.069 12.8655 226.77 12.7045C226.477 12.5388 226.138 12.456 225.755 12.456C225.366 12.456 225.018 12.5436 224.711 12.7188C224.403 12.8892 224.159 13.1236 223.979 13.4219C223.799 13.7154 223.704 14.0492 223.695 14.4233V16.4759C223.695 16.9209 223.783 17.3116 223.958 17.6477C224.133 17.9792 224.382 18.2372 224.703 18.4219C225.025 18.6065 225.409 18.6989 225.854 18.6989C226.162 18.6989 226.441 18.6562 226.692 18.571C226.943 18.4858 227.158 18.3603 227.338 18.1946C227.518 18.0289 227.653 17.8253 227.743 17.5838L230.932 17.6761C230.8 18.3911 230.508 19.0137 230.059 19.544C229.614 20.0696 229.029 20.4792 228.304 20.7727C227.58 21.0616 226.742 21.206 225.79 21.206ZM238.899 10.0909V12.6477H232.017V10.0909H238.899ZM233.459 7.47727H236.932V17.5696C236.932 17.7827 236.965 17.9555 237.031 18.0881C237.102 18.2159 237.204 18.3082 237.337 18.3651C237.469 18.4171 237.628 18.4432 237.812 18.4432C237.945 18.4432 238.085 18.4313 238.232 18.4077C238.383 18.3793 238.497 18.3556 238.572 18.3366L239.098 20.8438C238.932 20.8911 238.698 20.9503 238.395 21.0213C238.097 21.0923 237.739 21.1373 237.322 21.1562C236.508 21.1941 235.81 21.0994 235.227 20.8722C234.65 20.6402 234.207 20.2803 233.899 19.7926C233.596 19.3049 233.449 18.6918 233.459 17.9531V7.47727ZM242.71 21L239.869 10.0909H243.356L244.826 17.0795H244.918L246.495 10.0909H249.897L251.516 17.0298H251.609L253.036 10.0909H256.523L253.675 21H249.961L248.256 14.6435H248.136L246.431 21H242.71ZM262.775 21.206C261.629 21.206 260.645 20.9716 259.821 20.5028C259.002 20.0294 258.369 19.3712 257.924 18.5284C257.484 17.6809 257.264 16.6984 257.264 15.581C257.264 14.4588 257.484 13.4763 257.924 12.6335C258.369 11.786 259.002 11.1278 259.821 10.6591C260.645 10.1856 261.629 9.94886 262.775 9.94886C263.921 9.94886 264.904 10.1856 265.723 10.6591C266.547 11.1278 267.179 11.786 267.619 12.6335C268.064 13.4763 268.287 14.4588 268.287 15.581C268.287 16.6984 268.064 17.6809 267.619 18.5284C267.179 19.3712 266.547 20.0294 265.723 20.5028C264.904 20.9716 263.921 21.206 262.775 21.206ZM262.797 18.5852C263.213 18.5852 263.566 18.4574 263.855 18.2017C264.144 17.946 264.364 17.5909 264.515 17.1364C264.672 16.6818 264.75 16.1562 264.75 15.5597C264.75 14.9536 264.672 14.4233 264.515 13.9688C264.364 13.5142 264.144 13.1591 263.855 12.9034C263.566 12.6477 263.213 12.5199 262.797 12.5199C262.366 12.5199 262.001 12.6477 261.703 12.9034C261.409 13.1591 261.184 13.5142 261.028 13.9688C260.877 14.4233 260.801 14.9536 260.801 15.5597C260.801 16.1562 260.877 16.6818 261.028 17.1364C261.184 17.5909 261.409 17.946 261.703 18.2017C262.001 18.4574 262.366 18.5852 262.797 18.5852ZM270.066 21V10.0909H273.439V12.0795H273.553C273.752 11.3598 274.076 10.8248 274.526 10.4744C274.976 10.1193 275.499 9.94176 276.096 9.94176C276.257 9.94176 276.422 9.9536 276.593 9.97727C276.763 9.99621 276.922 10.027 277.069 10.0696V13.0881C276.903 13.0312 276.685 12.9863 276.415 12.9531C276.15 12.92 275.913 12.9034 275.705 12.9034C275.293 12.9034 274.921 12.9957 274.59 13.1804C274.263 13.3603 274.005 13.6136 273.816 13.9403C273.631 14.2623 273.539 14.6411 273.539 15.0767V21H270.066ZM281.616 18.1378L281.63 13.9972H282.113L285.181 10.0909H289.116L284.556 15.6875H283.64L281.616 18.1378ZM278.484 21V6.45455H281.957V21H278.484ZM285.259 21L282.404 16.4688L284.691 14.0043L289.272 21H285.259Z" fill="white"/>
<path d="M35.6804 23.5355C35.4711 22.7599 35.1634 22.0767 34.7571 21.4858C34.3509 20.8826 33.8523 20.3717 33.2614 19.9531C32.6705 19.5346 31.9934 19.2206 31.2301 19.0114C30.4669 18.7898 29.6297 18.679 28.7188 18.679C26.8845 18.679 25.2964 19.1222 23.9545 20.0085C22.625 20.8949 21.5971 22.1875 20.8707 23.8864C20.1444 25.5729 19.7812 27.6226 19.7812 30.0355C19.7812 32.4607 20.1321 34.5289 20.8338 36.2401C21.5355 37.9512 22.5511 39.2562 23.8807 40.1548C25.2102 41.0535 26.8229 41.5028 28.7188 41.5028C30.393 41.5028 31.8087 41.232 32.9659 40.6903C34.1354 40.1364 35.0218 39.3546 35.625 38.3452C36.2282 37.3357 36.5298 36.1477 36.5298 34.7812L38.2287 34.9844H29.0327V28.3182H45.3381V33.3224C45.3381 36.7079 44.6179 39.607 43.1776 42.0199C41.7495 44.4328 39.7798 46.2855 37.2685 47.5781C34.7694 48.8707 31.8949 49.517 28.6449 49.517C25.0379 49.517 21.8679 48.7353 19.1349 47.1719C16.402 45.6084 14.2723 43.3802 12.7457 40.4872C11.2192 37.5819 10.456 34.1349 10.456 30.1463C10.456 27.044 10.9176 24.2926 11.8409 21.892C12.7642 19.4792 14.0507 17.4356 15.7003 15.7614C17.3622 14.0871 19.2827 12.8191 21.4616 11.9574C23.6529 11.0956 26.0104 10.6648 28.5341 10.6648C30.7254 10.6648 32.7628 10.9787 34.6463 11.6065C36.5421 12.2344 38.2164 13.1207 39.669 14.2656C41.134 15.4105 42.322 16.7708 43.233 18.3466C44.1439 19.9223 44.7102 21.652 44.9318 23.5355H35.6804Z" fill="white"/>
<path d="M292.625 7.79545V3.60227H294.653C294.949 3.60227 295.21 3.65909 295.438 3.77273C295.669 3.88636 295.847 4.04735 295.972 4.25568C296.1 4.46402 296.165 4.71402 296.165 5.00568C296.165 5.30114 296.098 5.55303 295.966 5.76136C295.833 5.96591 295.65 6.12311 295.415 6.23295C295.184 6.33901 294.917 6.39205 294.614 6.39205H293.25V5.56818H294.398C294.568 5.56818 294.706 5.52083 294.812 5.42614C294.919 5.33144 294.972 5.19129 294.972 5.00568C294.972 4.8125 294.919 4.67235 294.812 4.58523C294.706 4.49432 294.57 4.44886 294.403 4.44886H293.773V7.79545H292.625ZM295.352 5.875L296.278 7.79545H295.023L294.17 5.875H295.352ZM294.29 10.2955C293.661 10.2955 293.072 10.178 292.523 9.94318C291.973 9.70833 291.491 9.38258 291.074 8.96591C290.657 8.54924 290.331 8.06629 290.097 7.51705C289.862 6.9678 289.744 6.37879 289.744 5.75C289.744 5.12121 289.862 4.5322 290.097 3.98295C290.331 3.43371 290.657 2.95076 291.074 2.53409C291.491 2.11742 291.973 1.79167 292.523 1.55682C293.072 1.32197 293.661 1.20455 294.29 1.20455C294.919 1.20455 295.508 1.32197 296.057 1.55682C296.606 1.79167 297.089 2.11742 297.506 2.53409C297.922 2.95076 298.248 3.43371 298.483 3.98295C298.718 4.5322 298.835 5.12121 298.835 5.75C298.835 6.37879 298.718 6.9678 298.483 7.51705C298.248 8.06629 297.922 8.54924 297.506 8.96591C297.089 9.38258 296.606 9.70833 296.057 9.94318C295.508 10.178 294.919 10.2955 294.29 10.2955ZM294.29 9.05682C294.903 9.05682 295.46 8.90909 295.96 8.61364C296.46 8.31439 296.858 7.91477 297.153 7.41477C297.453 6.91477 297.602 6.35985 297.602 5.75C297.602 5.14015 297.453 4.58523 297.153 4.08523C296.858 3.58523 296.458 3.1875 295.955 2.89205C295.455 2.5928 294.9 2.44318 294.29 2.44318C293.68 2.44318 293.125 2.5928 292.625 2.89205C292.125 3.1875 291.725 3.58523 291.426 4.08523C291.131 4.58523 290.983 5.14015 290.983 5.75C290.983 6.35985 291.131 6.91477 291.426 7.41477C291.725 7.91477 292.125 8.31439 292.625 8.61364C293.125 8.90909 293.68 9.05682 294.29 9.05682Z" fill="white"/>
</svg>
