<svg width="1251" height="236" viewBox="0 0 1251 236" fill="none" xmlns="http://www.w3.org/2000/svg">
<path d="M133.463 102.06C132.658 99.0767 131.474 96.4489 129.912 94.1761C128.349 91.8561 126.432 89.8911 124.159 88.2812C121.886 86.6714 119.282 85.464 116.347 84.6591C113.411 83.8068 110.191 83.3807 106.688 83.3807C99.6326 83.3807 93.5246 85.0852 88.3636 88.4943C83.25 91.9034 79.2964 96.875 76.5028 103.409C73.7093 109.896 72.3125 117.779 72.3125 127.06C72.3125 136.387 73.6619 144.342 76.3608 150.923C79.0597 157.505 82.9659 162.524 88.0795 165.98C93.1932 169.437 99.3958 171.165 106.688 171.165C113.127 171.165 118.572 170.123 123.023 168.04C127.521 165.909 130.93 162.902 133.25 159.02C135.57 155.137 136.73 150.568 136.73 145.312L143.264 146.094H107.895V120.455H170.608V139.702C170.608 152.723 167.838 163.873 162.298 173.153C156.806 182.434 149.23 189.56 139.571 194.531C129.959 199.503 118.903 201.989 106.403 201.989C92.5303 201.989 80.3381 198.982 69.8267 192.969C59.3153 186.955 51.1241 178.385 45.2528 167.259C39.3816 156.084 36.446 142.827 36.446 127.486C36.446 115.554 38.2216 104.972 41.7727 95.7386C45.3239 86.4583 50.2718 78.5985 56.6165 72.1591C63.0085 65.7197 70.3949 60.8428 78.7756 57.5284C87.2036 54.214 96.2708 52.5568 105.977 52.5568C114.405 52.5568 122.241 53.7642 129.486 56.179C136.777 58.5938 143.217 62.0028 148.804 66.4062C154.438 70.8097 159.008 76.0417 162.511 82.1023C166.015 88.1629 168.193 94.8153 169.045 102.06H133.463Z" fill="black"/>
<path d="M305.801 54.5455V200H275.972L218.088 116.051H217.165V200H182.009V54.5455H212.264L269.509 138.352H270.716V54.5455H305.801Z" fill="black"/>
<path d="M406.631 98.1534C406.157 92.9451 404.05 88.8968 400.31 86.0085C396.616 83.0729 391.337 81.6051 384.472 81.6051C379.926 81.6051 376.138 82.197 373.108 83.3807C370.078 84.5644 367.805 86.1979 366.29 88.2812C364.775 90.3172 363.993 92.661 363.946 95.3125C363.851 97.4905 364.277 99.4081 365.224 101.065C366.219 102.723 367.639 104.19 369.486 105.469C371.38 106.7 373.652 107.789 376.304 108.736C378.955 109.683 381.938 110.511 385.253 111.222L397.753 114.062C404.95 115.625 411.295 117.708 416.787 120.312C422.327 122.917 426.967 126.018 430.707 129.616C434.495 133.215 437.36 137.358 439.301 142.045C441.242 146.733 442.237 151.989 442.284 157.812C442.237 166.998 439.917 174.882 435.324 181.463C430.731 188.045 424.126 193.087 415.509 196.591C406.938 200.095 396.593 201.847 384.472 201.847C372.303 201.847 361.697 200.024 352.653 196.378C343.61 192.732 336.579 187.192 331.56 179.759C326.541 172.325 323.96 162.926 323.818 151.562H357.483C357.767 156.25 359.022 160.156 361.247 163.281C363.473 166.406 366.527 168.774 370.409 170.384C374.339 171.993 378.884 172.798 384.045 172.798C388.78 172.798 392.805 172.159 396.119 170.881C399.481 169.602 402.062 167.827 403.861 165.554C405.66 163.281 406.583 160.677 406.631 157.741C406.583 154.995 405.731 152.652 404.074 150.71C402.417 148.722 399.86 147.017 396.403 145.597C392.994 144.129 388.638 142.779 383.335 141.548L368.136 137.997C355.542 135.109 345.622 130.445 338.378 124.006C331.134 117.519 327.535 108.759 327.582 97.7273C327.535 88.7311 329.95 80.8475 334.827 74.0767C339.704 67.3059 346.451 62.0265 355.068 58.2386C363.686 54.4508 373.51 52.5568 384.543 52.5568C395.812 52.5568 405.589 54.4744 413.875 58.3097C422.208 62.0975 428.671 67.4242 433.264 74.2898C437.857 81.1553 440.201 89.1098 440.295 98.1534H406.631Z" fill="black"/>
<rect x="14" y="32" width="456" height="190" stroke="black" stroke-width="28"/>
<rect x="1" y="19" width="1249" height="216" stroke="black" stroke-width="2"/>
<path d="M571.393 141.467C571 137.144 569.252 133.784 566.147 131.387C563.082 128.951 558.7 127.732 553.001 127.732C549.229 127.732 546.085 128.223 543.57 129.206C541.054 130.188 539.168 131.544 537.911 133.273C536.653 134.963 536.004 136.909 535.965 139.109C535.887 140.917 536.24 142.509 537.026 143.884C537.852 145.26 539.031 146.478 540.563 147.539C542.135 148.561 544.022 149.465 546.222 150.251C548.423 151.037 550.899 151.724 553.65 152.314L564.025 154.672C569.998 155.969 575.264 157.698 579.823 159.859C584.421 162.021 588.272 164.595 591.377 167.582C594.521 170.568 596.899 174.007 598.51 177.898C600.121 181.788 600.947 186.151 600.986 190.984C600.947 198.608 599.021 205.152 595.209 210.614C591.397 216.077 585.915 220.262 578.762 223.17C571.649 226.079 563.062 227.533 553.001 227.533C542.902 227.533 534.098 226.02 526.592 222.994C519.086 219.968 513.25 215.37 509.085 209.2C504.919 203.03 502.777 195.229 502.659 185.797H530.601C530.837 189.688 531.878 192.93 533.725 195.523C535.572 198.117 538.107 200.082 541.33 201.418C544.591 202.754 548.364 203.423 552.648 203.423C556.578 203.423 559.918 202.892 562.669 201.831C565.459 200.77 567.601 199.296 569.094 197.41C570.588 195.523 571.354 193.362 571.393 190.925C571.354 188.646 570.647 186.701 569.271 185.089C567.896 183.439 565.774 182.024 562.905 180.845C560.075 179.627 556.46 178.507 552.058 177.485L539.443 174.538C528.99 172.14 520.756 168.269 514.744 162.925C508.731 157.541 505.744 150.27 505.783 141.114C505.744 133.647 507.748 127.103 511.796 121.484C515.844 115.864 521.444 111.482 528.597 108.338C535.749 105.194 543.904 103.622 553.06 103.622C562.414 103.622 570.529 105.214 577.406 108.397C584.323 111.541 589.687 115.962 593.499 121.661C597.311 127.359 599.257 133.961 599.335 141.467H571.393ZM658.048 227.71C648.577 227.71 640.403 225.843 633.526 222.109C626.688 218.337 621.421 212.972 617.727 206.016C614.072 199.021 612.245 190.709 612.245 181.081C612.245 171.728 614.092 163.554 617.786 156.558C621.48 149.524 626.688 144.061 633.408 140.17C640.128 136.241 648.047 134.276 657.164 134.276C663.609 134.276 669.504 135.278 674.849 137.282C680.193 139.286 684.811 142.253 688.702 146.183C692.592 150.113 695.618 154.967 697.78 160.744C699.941 166.481 701.022 173.064 701.022 180.491V187.683H622.325V170.942H674.2C674.161 167.876 673.434 165.145 672.019 162.748C670.604 160.351 668.659 158.484 666.183 157.148C663.747 155.772 660.937 155.085 657.754 155.085C654.531 155.085 651.643 155.812 649.088 157.266C646.534 158.68 644.51 160.626 643.016 163.102C641.523 165.538 640.737 168.309 640.658 171.413V188.45C640.658 192.144 641.385 195.386 642.839 198.176C644.294 200.927 646.357 203.069 649.029 204.602C651.701 206.134 654.885 206.901 658.579 206.901C661.133 206.901 663.452 206.547 665.535 205.839C667.618 205.132 669.406 204.091 670.899 202.715C672.393 201.34 673.513 199.65 674.259 197.646L700.727 198.412C699.627 204.346 697.21 209.514 693.477 213.915C689.782 218.278 684.929 221.677 678.916 224.114C672.903 226.511 665.947 227.71 658.048 227.71ZM715.744 226V135.455H743.745V151.96H744.688C746.339 145.987 749.031 141.546 752.764 138.638C756.498 135.69 760.84 134.217 765.792 134.217C767.128 134.217 768.504 134.315 769.919 134.511C771.333 134.669 772.65 134.924 773.868 135.278V160.331C772.493 159.859 770.685 159.486 768.445 159.211C766.244 158.936 764.279 158.798 762.55 158.798C759.131 158.798 756.046 159.565 753.295 161.097C750.583 162.591 748.441 164.693 746.869 167.405C745.337 170.077 744.57 173.221 744.57 176.837V226H715.744ZM876.203 135.455L845.137 226H812.126L781.119 135.455H811.477L828.16 197.822H829.103L845.845 135.455H876.203ZM887.256 226V135.455H916.082V226H887.256ZM901.699 124.903C897.651 124.903 894.173 123.567 891.265 120.894C888.357 118.183 886.903 114.921 886.903 111.109C886.903 107.336 888.357 104.113 891.265 101.441C894.173 98.7294 897.651 97.3736 901.699 97.3736C905.786 97.3736 909.264 98.7294 912.133 101.441C915.041 104.113 916.495 107.336 916.495 111.109C916.495 114.921 915.041 118.183 912.133 120.894C909.264 123.567 905.786 124.903 901.699 124.903ZM976.696 227.71C967.147 227.71 958.953 225.745 952.115 221.815C945.316 217.885 940.089 212.422 936.434 205.427C932.779 198.392 930.952 190.257 930.952 181.022C930.952 171.747 932.779 163.612 936.434 156.617C940.128 149.583 945.375 144.1 952.174 140.17C959.012 136.241 967.166 134.276 976.637 134.276C985.008 134.276 992.298 135.789 998.507 138.815C1004.76 141.841 1009.63 146.124 1013.13 151.665C1016.66 157.167 1018.53 163.632 1018.73 171.06H991.787C991.237 166.422 989.665 162.787 987.071 160.154C984.517 157.521 981.176 156.205 977.05 156.205C973.71 156.205 970.782 157.148 968.267 159.034C965.752 160.881 963.787 163.632 962.372 167.287C960.996 170.902 960.309 175.383 960.309 180.727C960.309 186.072 960.996 190.591 962.372 194.286C963.787 197.94 965.752 200.711 968.267 202.597C970.782 204.444 973.71 205.368 977.05 205.368C979.722 205.368 982.08 204.798 984.124 203.658C986.207 202.519 987.916 200.848 989.252 198.648C990.589 196.408 991.434 193.696 991.787 190.513H1018.73C1018.45 197.98 1016.59 204.503 1013.13 210.084C1009.71 215.664 1004.89 220.007 998.684 223.112C992.514 226.177 985.185 227.71 976.696 227.71ZM1075.8 227.71C1066.33 227.71 1058.16 225.843 1051.28 222.109C1044.44 218.337 1039.18 212.972 1035.48 206.016C1031.83 199.021 1030 190.709 1030 181.081C1030 171.728 1031.85 163.554 1035.54 156.558C1039.24 149.524 1044.44 144.061 1051.16 140.17C1057.88 136.241 1065.8 134.276 1074.92 134.276C1081.36 134.276 1087.26 135.278 1092.6 137.282C1097.95 139.286 1102.57 142.253 1106.46 146.183C1110.35 150.113 1113.37 154.967 1115.54 160.744C1117.7 166.481 1118.78 173.064 1118.78 180.491V187.683H1040.08V170.942H1091.96C1091.92 167.876 1091.19 165.145 1089.78 162.748C1088.36 160.351 1086.41 158.484 1083.94 157.148C1081.5 155.772 1078.69 155.085 1075.51 155.085C1072.29 155.085 1069.4 155.812 1066.84 157.266C1064.29 158.68 1062.27 160.626 1060.77 163.102C1059.28 165.538 1058.49 168.309 1058.41 171.413V188.45C1058.41 192.144 1059.14 195.386 1060.6 198.176C1062.05 200.927 1064.11 203.069 1066.78 204.602C1069.46 206.134 1072.64 206.901 1076.33 206.901C1078.89 206.901 1081.21 206.547 1083.29 205.839C1085.37 205.132 1087.16 204.091 1088.66 202.715C1090.15 201.34 1091.27 199.65 1092.02 197.646L1118.48 198.412C1117.38 204.346 1114.97 209.514 1111.23 213.915C1107.54 218.278 1102.68 221.677 1096.67 224.114C1090.66 226.511 1083.7 227.71 1075.8 227.71ZM1212.55 163.102L1186.08 163.809C1185.81 161.923 1185.06 160.252 1183.84 158.798C1182.62 157.305 1181.03 156.146 1179.07 155.32C1177.14 154.456 1174.9 154.023 1172.35 154.023C1169.01 154.023 1166.16 154.692 1163.8 156.028C1161.48 157.364 1160.34 159.172 1160.38 161.451C1160.34 163.219 1161.05 164.752 1162.5 166.049C1164 167.346 1166.65 168.387 1170.46 169.173L1187.91 172.474C1196.95 174.204 1203.67 177.072 1208.07 181.081C1212.51 185.089 1214.75 190.395 1214.79 196.997C1214.75 203.206 1212.9 208.61 1209.25 213.208C1205.63 217.806 1200.68 221.382 1194.39 223.937C1188.11 226.452 1180.91 227.71 1172.82 227.71C1159.89 227.71 1149.69 225.057 1142.22 219.751C1134.8 214.407 1130.55 207.254 1129.49 198.294L1157.96 197.587C1158.59 200.888 1160.22 203.403 1162.86 205.132C1165.49 206.861 1168.85 207.726 1172.94 207.726C1176.63 207.726 1179.64 207.038 1181.96 205.663C1184.27 204.287 1185.45 202.46 1185.49 200.18C1185.45 198.137 1184.55 196.506 1182.78 195.288C1181.01 194.03 1178.24 193.048 1174.47 192.34L1158.67 189.334C1149.59 187.683 1142.83 184.638 1138.39 180.197C1133.95 175.717 1131.75 170.018 1131.79 163.102C1131.75 157.049 1133.36 151.882 1136.62 147.598C1139.89 143.275 1144.52 139.974 1150.54 137.695C1156.55 135.415 1163.64 134.276 1171.82 134.276C1184.08 134.276 1193.75 136.85 1200.82 141.998C1207.89 147.107 1211.8 154.141 1212.55 163.102Z" fill="black"/>
<path d="M548.102 46.9886C547.716 45.5568 547.148 44.2955 546.398 43.2045C545.648 42.0909 544.727 41.1477 543.636 40.375C542.545 39.6023 541.295 39.0227 539.886 38.6364C538.477 38.2273 536.932 38.0227 535.25 38.0227C531.864 38.0227 528.932 38.8409 526.455 40.4773C524 42.1136 522.102 44.5 520.761 47.6364C519.42 50.75 518.75 54.5341 518.75 58.9886C518.75 63.4659 519.398 67.2841 520.693 70.4432C521.989 73.6023 523.864 76.0114 526.318 77.6705C528.773 79.3295 531.75 80.1591 535.25 80.1591C538.341 80.1591 540.955 79.6591 543.091 78.6591C545.25 77.6364 546.886 76.1932 548 74.3295C549.114 72.4659 549.67 70.2727 549.67 67.75L552.807 68.125H535.83V55.8182H565.932V65.0568C565.932 71.3068 564.602 76.6591 561.943 81.1136C559.307 85.5682 555.67 88.9886 551.034 91.375C546.42 93.7614 541.114 94.9545 535.114 94.9545C528.455 94.9545 522.602 93.5114 517.557 90.625C512.511 87.7386 508.58 83.625 505.761 78.2841C502.943 72.9205 501.534 66.5568 501.534 59.1932C501.534 53.4659 502.386 48.3864 504.091 43.9545C505.795 39.5 508.17 35.7273 511.216 32.6364C514.284 29.5455 517.83 27.2045 521.852 25.6136C525.898 24.0227 530.25 23.2273 534.909 23.2273C538.955 23.2273 542.716 23.8068 546.193 24.9659C549.693 26.125 552.784 27.7614 555.466 29.875C558.17 31.9886 560.364 34.5 562.045 37.4091C563.727 40.3182 564.773 43.5114 565.182 46.9886H548.102ZM592.548 24.1818V94H575.878V24.1818H592.548ZM627.602 94.9886C622.102 94.9886 617.375 93.8636 613.42 91.6136C609.489 89.3409 606.455 86.1818 604.318 82.1364C602.205 78.0682 601.148 73.3523 601.148 67.9886C601.148 62.6023 602.205 57.8864 604.318 53.8409C606.455 49.7727 609.489 46.6136 613.42 44.3636C617.375 42.0909 622.102 40.9545 627.602 40.9545C633.102 40.9545 637.818 42.0909 641.75 44.3636C645.705 46.6136 648.739 49.7727 650.852 53.8409C652.989 57.8864 654.057 62.6023 654.057 67.9886C654.057 73.3523 652.989 78.0682 650.852 82.1364C648.739 86.1818 645.705 89.3409 641.75 91.6136C637.818 93.8636 633.102 94.9886 627.602 94.9886ZM627.705 82.4091C629.705 82.4091 631.398 81.7955 632.784 80.5682C634.17 79.3409 635.227 77.6364 635.955 75.4545C636.705 73.2727 637.08 70.75 637.08 67.8864C637.08 64.9773 636.705 62.4318 635.955 60.25C635.227 58.0682 634.17 56.3636 632.784 55.1364C631.398 53.9091 629.705 53.2955 627.705 53.2955C625.636 53.2955 623.886 53.9091 622.455 55.1364C621.045 56.3636 619.966 58.0682 619.216 60.25C618.489 62.4318 618.125 64.9773 618.125 67.8864C618.125 70.75 618.489 73.2727 619.216 75.4545C619.966 77.6364 621.045 79.3409 622.455 80.5682C623.886 81.7955 625.636 82.4091 627.705 82.4091ZM662.597 94V24.1818H679.267V50.6023H679.608C680.29 49.0114 681.256 47.4773 682.506 46C683.778 44.5227 685.392 43.3182 687.347 42.3864C689.324 41.4318 691.688 40.9545 694.438 40.9545C698.074 40.9545 701.472 41.9091 704.631 43.8182C707.812 45.7273 710.381 48.6705 712.335 52.6477C714.29 56.625 715.267 61.6932 715.267 67.8523C715.267 73.7841 714.324 78.75 712.438 82.75C710.574 86.75 708.051 89.75 704.869 91.75C701.71 93.75 698.199 94.75 694.335 94.75C691.699 94.75 689.415 94.3182 687.483 93.4545C685.551 92.5909 683.926 91.4545 682.608 90.0455C681.312 88.6364 680.313 87.125 679.608 85.5114H679.097V94H662.597ZM678.926 67.8182C678.926 70.6364 679.301 73.0909 680.051 75.1818C680.824 77.2727 681.926 78.8977 683.358 80.0568C684.812 81.1932 686.551 81.7614 688.574 81.7614C690.619 81.7614 692.358 81.1932 693.79 80.0568C695.222 78.8977 696.301 77.2727 697.028 75.1818C697.778 73.0909 698.153 70.6364 698.153 67.8182C698.153 65 697.778 62.5568 697.028 60.4886C696.301 58.4205 695.222 56.8182 693.79 55.6818C692.381 54.5455 690.642 53.9773 688.574 53.9773C686.528 53.9773 684.79 54.5341 683.358 55.6477C681.926 56.7614 680.824 58.3523 680.051 60.4205C679.301 62.4886 678.926 64.9545 678.926 67.8182ZM738.764 94.8864C735.423 94.8864 732.457 94.3295 729.866 93.2159C727.298 92.0795 725.264 90.375 723.764 88.1023C722.287 85.8068 721.548 82.9318 721.548 79.4773C721.548 76.5682 722.06 74.1136 723.082 72.1136C724.105 70.1136 725.514 68.4886 727.31 67.2386C729.105 65.9886 731.173 65.0455 733.514 64.4091C735.855 63.75 738.355 63.3068 741.014 63.0795C743.991 62.8068 746.389 62.5227 748.207 62.2273C750.026 61.9091 751.344 61.4659 752.162 60.8977C753.003 60.3068 753.423 59.4773 753.423 58.4091V58.2386C753.423 56.4886 752.821 55.1364 751.616 54.1818C750.412 53.2273 748.787 52.75 746.741 52.75C744.537 52.75 742.764 53.2273 741.423 54.1818C740.082 55.1364 739.23 56.4545 738.866 58.1364L723.491 57.5909C723.946 54.4091 725.116 51.5682 727.003 49.0682C728.912 46.5455 731.526 44.5682 734.844 43.1364C738.185 41.6818 742.196 40.9545 746.878 40.9545C750.219 40.9545 753.298 41.3523 756.116 42.1477C758.935 42.9205 761.389 44.0568 763.48 45.5568C765.571 47.0341 767.185 48.8523 768.321 51.0114C769.48 53.1705 770.06 55.6364 770.06 58.4091V94H754.378V86.7045H753.969C753.037 88.4773 751.844 89.9773 750.389 91.2045C748.957 92.4318 747.264 93.3523 745.31 93.9659C743.378 94.5795 741.196 94.8864 738.764 94.8864ZM743.912 83.9773C745.707 83.9773 747.321 83.6136 748.753 82.8864C750.207 82.1591 751.366 81.1591 752.23 79.8864C753.094 78.5909 753.526 77.0909 753.526 75.3864V70.4091C753.048 70.6591 752.469 70.8864 751.787 71.0909C751.128 71.2955 750.401 71.4886 749.605 71.6705C748.81 71.8523 747.991 72.0114 747.151 72.1477C746.31 72.2841 745.503 72.4091 744.73 72.5227C743.162 72.7727 741.821 73.1591 740.707 73.6818C739.616 74.2045 738.776 74.8864 738.185 75.7273C737.616 76.5455 737.332 77.5227 737.332 78.6591C737.332 80.3864 737.946 81.7045 739.173 82.6136C740.423 83.5227 742.003 83.9773 743.912 83.9773ZM796.923 24.1818V94H780.253V24.1818H796.923Z" fill="black"/>
<path d="M886.705 24.1818V94H872.386L844.602 53.7045H844.159V94H827.284V24.1818H841.807L869.284 64.4091H869.864V24.1818H886.705ZM921.793 94.9886C916.315 94.9886 911.588 93.9091 907.611 91.75C903.656 89.5682 900.611 86.4659 898.474 82.4432C896.361 78.3977 895.304 73.5909 895.304 68.0227C895.304 62.6136 896.372 57.8864 898.509 53.8409C900.645 49.7727 903.656 46.6136 907.543 44.3636C911.429 42.0909 916.009 40.9545 921.281 40.9545C925.009 40.9545 928.418 41.5341 931.509 42.6932C934.599 43.8523 937.27 45.5682 939.52 47.8409C941.77 50.1136 943.52 52.9205 944.77 56.2614C946.02 59.5795 946.645 63.3864 946.645 67.6818V71.8409H901.134V62.1591H931.134C931.111 60.3864 930.69 58.8068 929.872 57.4205C929.054 56.0341 927.929 54.9545 926.497 54.1818C925.088 53.3864 923.463 52.9886 921.622 52.9886C919.759 52.9886 918.088 53.4091 916.611 54.25C915.134 55.0682 913.963 56.1932 913.099 57.625C912.236 59.0341 911.781 60.6364 911.736 62.4318V72.2841C911.736 74.4205 912.156 76.2955 912.997 77.9091C913.838 79.5 915.031 80.7386 916.577 81.625C918.122 82.5114 919.963 82.9545 922.099 82.9545C923.577 82.9545 924.918 82.75 926.122 82.3409C927.327 81.9318 928.361 81.3295 929.224 80.5341C930.088 79.7386 930.736 78.7614 931.168 77.6023L946.474 78.0455C945.838 81.4773 944.44 84.4659 942.281 87.0114C940.145 89.5341 937.338 91.5 933.861 92.9091C930.384 94.2955 926.361 94.9886 921.793 94.9886ZM984.716 41.6364V53.9091H951.682V41.6364H984.716ZM958.602 29.0909H975.273V77.5341C975.273 78.5568 975.432 79.3864 975.75 80.0227C976.091 80.6364 976.58 81.0795 977.216 81.3523C977.852 81.6023 978.614 81.7273 979.5 81.7273C980.136 81.7273 980.807 81.6705 981.511 81.5568C982.239 81.4205 982.784 81.3068 983.148 81.2159L985.67 93.25C984.875 93.4773 983.75 93.7614 982.295 94.1023C980.864 94.4432 979.148 94.6591 977.148 94.75C973.239 94.9318 969.886 94.4773 967.091 93.3864C964.318 92.2727 962.193 90.5455 960.716 88.2045C959.261 85.8636 958.557 82.9205 958.602 79.375V29.0909ZM1003.01 94L989.369 41.6364H1006.11L1013.16 75.1818H1013.61L1021.18 41.6364H1037.51L1045.28 74.9432H1045.72L1052.57 41.6364H1069.31L1055.64 94H1037.81L1029.63 63.4886H1029.05L1020.87 94H1003.01ZM1099.32 94.9886C1093.82 94.9886 1089.09 93.8636 1085.14 91.6136C1081.21 89.3409 1078.17 86.1818 1076.04 82.1364C1073.92 78.0682 1072.87 73.3523 1072.87 67.9886C1072.87 62.6023 1073.92 57.8864 1076.04 53.8409C1078.17 49.7727 1081.21 46.6136 1085.14 44.3636C1089.09 42.0909 1093.82 40.9545 1099.32 40.9545C1104.82 40.9545 1109.54 42.0909 1113.47 44.3636C1117.42 46.6136 1120.46 49.7727 1122.57 53.8409C1124.71 57.8864 1125.78 62.6023 1125.78 67.9886C1125.78 73.3523 1124.71 78.0682 1122.57 82.1364C1120.46 86.1818 1117.42 89.3409 1113.47 91.6136C1109.54 93.8636 1104.82 94.9886 1099.32 94.9886ZM1099.42 82.4091C1101.42 82.4091 1103.12 81.7955 1104.5 80.5682C1105.89 79.3409 1106.95 77.6364 1107.67 75.4545C1108.42 73.2727 1108.8 70.75 1108.8 67.8864C1108.8 64.9773 1108.42 62.4318 1107.67 60.25C1106.95 58.0682 1105.89 56.3636 1104.5 55.1364C1103.12 53.9091 1101.42 53.2955 1099.42 53.2955C1097.36 53.2955 1095.61 53.9091 1094.17 55.1364C1092.76 56.3636 1091.68 58.0682 1090.93 60.25C1090.21 62.4318 1089.84 64.9773 1089.84 67.8864C1089.84 70.75 1090.21 73.2727 1090.93 75.4545C1091.68 77.6364 1092.76 79.3409 1094.17 80.5682C1095.61 81.7955 1097.36 82.4091 1099.42 82.4091ZM1134.32 94V41.6364H1150.51V51.1818H1151.05C1152.01 47.7273 1153.57 45.1591 1155.72 43.4773C1157.88 41.7727 1160.39 40.9205 1163.26 40.9205C1164.03 40.9205 1164.83 40.9773 1165.64 41.0909C1166.46 41.1818 1167.22 41.3295 1167.93 41.5341V56.0227C1167.13 55.75 1166.09 55.5341 1164.79 55.375C1163.52 55.2159 1162.38 55.1364 1161.38 55.1364C1159.41 55.1364 1157.62 55.5795 1156.03 56.4659C1154.46 57.3295 1153.22 58.5455 1152.32 60.1136C1151.43 61.6591 1150.99 63.4773 1150.99 65.5682V94H1134.32ZM1189.76 80.2614L1189.82 60.3864H1192.14L1206.87 41.6364H1225.76L1203.87 68.5H1199.47L1189.76 80.2614ZM1174.72 94V24.1818H1191.39V94H1174.72ZM1207.24 94L1193.54 72.25L1204.52 60.4205L1226.51 94H1207.24Z" fill="black"/>
<path d="M1219.97 121.687V110.156H1225.55C1226.36 110.156 1227.08 110.312 1227.7 110.625C1228.34 110.938 1228.83 111.38 1229.17 111.953C1229.53 112.526 1229.7 113.214 1229.7 114.016C1229.7 114.828 1229.52 115.521 1229.16 116.094C1228.79 116.656 1228.29 117.089 1227.64 117.391C1227.01 117.682 1226.27 117.828 1225.44 117.828H1221.69V115.562H1224.84C1225.31 115.562 1225.69 115.432 1225.98 115.172C1226.28 114.911 1226.42 114.526 1226.42 114.016C1226.42 113.484 1226.28 113.099 1225.98 112.859C1225.69 112.609 1225.32 112.484 1224.86 112.484H1223.13V121.687H1219.97ZM1227.47 116.406L1230.02 121.687H1226.56L1224.22 116.406H1227.47ZM1224.55 128.562C1222.82 128.562 1221.2 128.24 1219.69 127.594C1218.18 126.948 1216.85 126.052 1215.7 124.906C1214.56 123.76 1213.66 122.432 1213.02 120.922C1212.37 119.411 1212.05 117.792 1212.05 116.062C1212.05 114.333 1212.37 112.714 1213.02 111.203C1213.66 109.693 1214.56 108.365 1215.7 107.219C1216.85 106.073 1218.18 105.177 1219.69 104.531C1221.2 103.885 1222.82 103.562 1224.55 103.562C1226.28 103.562 1227.9 103.885 1229.41 104.531C1230.92 105.177 1232.24 106.073 1233.39 107.219C1234.54 108.365 1235.43 109.693 1236.08 111.203C1236.72 112.714 1237.05 114.333 1237.05 116.062C1237.05 117.792 1236.72 119.411 1236.08 120.922C1235.43 122.432 1234.54 123.76 1233.39 124.906C1232.24 126.052 1230.92 126.948 1229.41 127.594C1227.9 128.24 1226.28 128.562 1224.55 128.562ZM1224.55 125.156C1226.23 125.156 1227.77 124.75 1229.14 123.937C1230.52 123.115 1231.61 122.016 1232.42 120.641C1233.24 119.266 1233.66 117.74 1233.66 116.062C1233.66 114.385 1233.24 112.859 1232.42 111.484C1231.61 110.109 1230.51 109.016 1229.13 108.203C1227.75 107.38 1226.22 106.969 1224.55 106.969C1222.87 106.969 1221.34 107.38 1219.97 108.203C1218.59 109.016 1217.49 110.109 1216.67 111.484C1215.86 112.859 1215.45 114.385 1215.45 116.062C1215.45 117.74 1215.86 119.266 1216.67 120.641C1217.49 122.016 1218.59 123.115 1219.97 123.937C1221.34 124.75 1222.87 125.156 1224.55 125.156Z" fill="black"/>
</svg>
